<svg xmlns="http://www.w3.org/2000/svg" x="0px" y="0px"
width="100" height="100"
viewBox="0 0 50 50"
style=" fill:#000000;"><path d="M 46.980469 1.9902344 A 1.0001 1.0001 0 0 0 46.292969 2.2929688 L 40.53125 8.0546875 C 36.439103 4.302337 30.986114 2 25 2 C 12.309534 2 2 12.309534 2 25 C 2 30.985227 4.3097978 36.431436 8.0625 40.523438 L 2.2929688 46.292969 A 1.0001 1.0001 0 1 0 3.7070312 47.707031 L 47.707031 3.7070312 A 1.0001 1.0001 0 0 0 46.980469 1.9902344 z M 25 4 C 30.444872 4 35.384784 6.0777288 39.115234 9.4707031 L 9.4707031 39.115234 C 6.0767245 35.384601 4 30.444955 4 25 C 4 13.390466 13.390466 4 25 4 z M 43.251953 10.996094 L 41.808594 12.439453 C 44.517594 16.043453 46 20.386 46 25 C 46 36.609534 36.609534 46 25 46 C 20.385 46 16.042453 44.517594 12.439453 41.808594 L 10.996094 43.251953 C 14.964737 46.315694 19.791267 47.97753 24.914062 47.996094 A 1.0001 1.0001 0 0 0 24.929688 47.998047 C 24.953285 47.998117 24.97639 48 25 48 C 37.690466 48 48 37.690466 48 25 C 48 24.966543 47.996234 24.933822 47.996094 24.900391 A 1.0001 1.0001 0 0 0 47.996094 24.898438 C 47.974185 19.782467 46.313555 14.960679 43.251953 10.996094 z"></path></svg>